<svg xmlns="http://www.w3.org/2000/svg" viewBox="0 0 1200 900" width="1200" height="900" role="img" aria-label="Offshore Blue Water">
  <defs>
    <linearGradient id="g" x1="0" y1="0" x2="0.35" y2="1">
      <stop offset="0" stop-color="#3aa0c4"/>
      <stop offset="1" stop-color="#103d59"/>
    </linearGradient>
    <radialGradient id="glow" cx="0.5" cy="0.0" r="0.9">
      <stop offset="0" stop-color="#ffffff" stop-opacity="0.22"/>
      <stop offset="1" stop-color="#ffffff" stop-opacity="0"/>
    </radialGradient>
  </defs>
  <rect width="1200" height="900" fill="url(#g)"/>
  <rect width="1200" height="900" fill="url(#glow)"/>
  <rect x="40" y="-200" width="34" height="1300" fill="#ffffff" opacity="0.05" transform="rotate(14 40 450)"/><rect x="240" y="-200" width="34" height="1300" fill="#ffffff" opacity="0.05" transform="rotate(14 240 450)"/><rect x="440" y="-200" width="34" height="1300" fill="#ffffff" opacity="0.05" transform="rotate(14 440 450)"/><rect x="640" y="-200" width="34" height="1300" fill="#ffffff" opacity="0.05" transform="rotate(14 640 450)"/><rect x="840" y="-200" width="34" height="1300" fill="#ffffff" opacity="0.05" transform="rotate(14 840 450)"/><rect x="1040" y="-200" width="34" height="1300" fill="#ffffff" opacity="0.05" transform="rotate(14 1040 450)"/>
  <path d="M0 830 C 300 770, 540 880, 720 830 S 1080 780, 1200 830 V 900 H 0 Z" fill="#ffffff" opacity="0.06"/>
  <g opacity="0.9" fill="none" stroke="#ffffff" stroke-opacity="0.6" stroke-width="3">
    <circle cx="600" cy="414" r="30"/>
    <path d="M587 414 a13 13 0 0 1 26 0" stroke-opacity="0.9"/>
  </g>
  <text x="50%" y="478" text-anchor="middle" fill="#ffffff" fill-opacity="0.92"
    font-family="Georgia, 'Times New Roman', serif" font-size="42" font-style="italic">Offshore Blue Water</text>
  <text x="50%" y="528" text-anchor="middle" fill="#ffffff" fill-opacity="0.55"
    font-family="Arial, sans-serif" font-size="20" letter-spacing="3">PHOTO PLACEHOLDER</text>
</svg>